<svg width="160" height="118" viewBox="0 0 160 118" fill="none" xmlns="http://www.w3.org/2000/svg">
<path fill-rule="evenodd" clip-rule="evenodd" d="M8.59719 50.8039H8.24649C3.70741 50.8039 0 54.5949 0 59.2363C0 63.8777 3.71743 67.6687 8.24649 67.6687H8.59719C13.1363 67.6687 16.8437 63.8777 16.8437 59.2363C16.8437 54.5949 13.1262 50.8039 8.59719 50.8039ZM52.5952 0.834473H146.874C154.088 0.834473 159.99 6.86934 160 14.2771V104.257C160 111.634 154.098 117.669 146.884 117.669H52.6052C45.3908 117.669 39.489 111.634 39.489 104.257V101.409H23.006C18.4669 101.409 14.7595 97.6176 14.7595 92.9762C14.7595 88.3347 18.4669 84.5437 23.006 84.5437H39.489H52.9559H61.9539C66.493 84.5437 70.2004 80.7528 70.2004 76.1114C70.2004 71.4699 66.483 67.6789 61.9539 67.6789H59.9198H39.489H32.4048C27.8657 67.6789 24.1583 63.888 24.1583 59.2465C24.1583 54.6051 27.8657 50.8141 32.4048 50.8141H39.489H59.9198H66.0721C70.6112 50.8141 74.3186 47.0231 74.3186 42.392C74.3186 37.7506 70.6012 33.9596 66.0721 33.9596H53.8778H39.479H22.2946C17.7555 33.9596 14.0481 30.1686 14.0481 25.5272C14.0481 20.8858 17.7555 17.0948 22.2946 17.0948H39.479V14.2464C39.479 6.86933 45.3808 0.834473 52.5952 0.834473ZM132.65 72.4703C139.447 72.4703 144.957 66.8357 144.957 59.8851C144.957 52.9345 139.447 47.2999 132.65 47.2999C125.852 47.2999 120.342 52.9345 120.342 59.8851C120.342 66.8357 125.852 72.4703 132.65 72.4703Z" fill="#15AB8E"/>
</svg>
