<svg xmlns="http://www.w3.org/2000/svg" xmlns:xlink="http://www.w3.org/1999/xlink" width="500" zoomAndPan="magnify" viewBox="0 0 375 374.999991" height="500" preserveAspectRatio="xMidYMid meet" version="1.0"><path fill="#fe9aa0" d="M 48.707031 155 C 69.554688 123.703125 98.542969 94.40625 137.414062 62.160156 C 171.695312 44.0625 175.933594 74.949219 161.429688 95.9375 C 147.746094 110.375 134.492188 122.441406 123.023438 139.203125 C 118.796875 155.074219 135.3125 154.125 146.804688 152.589844 C 202.503906 138.082031 252.433594 110.019531 308.03125 95.933594 C 340.097656 93.753906 324.15625 124.335938 306.316406 133.683594 C 283 141.9375 213.476562 157.394531 200.5 177.5625 C 197.347656 186.632812 205.039062 186.238281 212.160156 185.300781 C 227.347656 181.222656 242.535156 177.148438 257.722656 173.074219 C 273.746094 167.816406 289.765625 162.5625 305.789062 157.304688 C 321.097656 153.804688 337.453125 147.8125 351.738281 157.988281 C 352.839844 159.53125 353.941406 161.066406 355.046875 162.605469 C 359.179688 181.742188 345.496094 182.960938 328.03125 188.382812 C 319.175781 191.796875 310.324219 195.214844 301.472656 198.628906 C 289.785156 202.167969 278.097656 205.707031 266.410156 209.246094 C 256.007812 212.046875 245.609375 214.84375 235.210938 217.640625 C 232.09375 218.636719 228.980469 219.632812 225.867188 220.628906 C 216.070312 229.664062 223.867188 231.835938 232.414062 232.894531 C 236.734375 232.582031 241.054688 232.269531 245.375 231.957031 C 256.082031 229.851562 375 203.132812 359.851562 235.773438 C 355.847656 240.785156 353.085938 243.578125 346.8125 245.886719 C 278.175781 265.316406 229.792969 300.632812 198.734375 209.316406 C 196.476562 202.449219 194.21875 195.585938 191.964844 188.71875 C 188.339844 179.546875 183.390625 151.609375 168.695312 159.527344 C 168.066406 160.742188 167.4375 161.957031 166.804688 163.171875 C 165.554688 169.410156 167.613281 175.199219 168.828125 181.410156 C 170.992188 190.121094 173.15625 198.835938 175.320312 207.546875 C 175.417969 209.800781 175.515625 212.054688 175.613281 214.3125 C 174.472656 218.65625 170.992188 218.515625 168.015625 216.441406 C 167.214844 215.492188 166.417969 214.542969 165.617188 213.59375 C 162.886719 210.519531 160.152344 207.445312 157.421875 204.375 C 154.53125 201.511719 151.644531 198.652344 148.757812 195.789062 C 143.179688 191.097656 124.214844 168.789062 114.410156 173.304688 C 108.738281 175.917969 109.074219 181.34375 111.621094 185.777344 C 119.207031 198.996094 134.488281 211.398438 144.4375 222.15625 C 145.625 223.582031 146.816406 225.007812 148.007812 226.433594 C 149.707031 229.519531 149.597656 231.316406 145.851562 230.292969 C 142.949219 229.5 139.671875 226.832031 137.0625 225.265625 C 127.195312 218.863281 99.933594 192.878906 87.964844 201.273438 C 82.398438 207.632812 87.136719 213.46875 92.066406 218.488281 C 99.6875 224.550781 107.308594 230.617188 114.929688 236.683594 C 121.398438 241.34375 127.867188 246.007812 134.339844 250.667969 C 135.8125 252.621094 137.320312 256.46875 132.984375 256.175781 C 131.203125 256.050781 129.421875 255.929688 127.640625 255.808594 C 122.761719 255.519531 117.890625 255.230469 113.015625 254.945312 C 102.617188 253.222656 93 251.703125 83.015625 248.386719 C 78.101562 248.253906 71.664062 247.09375 69.21875 252.78125 C 68.933594 254.113281 68.648438 255.445312 68.363281 256.777344 C 69.269531 264.074219 82.066406 267.445312 87.707031 269.257812 C 91.234375 270.535156 94.761719 271.808594 98.289062 273.082031 C 104.1875 275.273438 110.085938 277.464844 115.984375 279.65625 C 131.265625 283.070312 140.726562 286.722656 152.847656 296.167969 C 156.691406 300.449219 159.007812 303.023438 157.308594 308.582031 C 139.066406 330.933594 107.832031 328.867188 82.339844 327.144531 C 0.0078125 310.746094 3.371094 208.957031 48.707031 155 " fill-opacity="1" fill-rule="evenodd"/></svg>