<svg xmlns="http://www.w3.org/2000/svg" xmlns:xlink="http://www.w3.org/1999/xlink" width="500" zoomAndPan="magnify" viewBox="0 0 375 374.999991" height="500" preserveAspectRatio="xMidYMid meet" version="1.0"><defs><g/><clipPath id="84f25e3c67"><path d="M 187.5 0 C 83.945312 0 0 83.945312 0 187.5 C 0 291.054688 83.945312 375 187.5 375 C 291.054688 375 375 291.054688 375 187.5 C 375 83.945312 291.054688 0 187.5 0 Z M 187.5 0 " clip-rule="nonzero"/></clipPath></defs><rect x="-37.5" width="450" fill="#ffffff" y="-37.499999" height="449.999989" fill-opacity="1"/><rect x="-37.5" width="450" fill="#ffffff" y="-37.499999" height="449.999989" fill-opacity="1"/><g clip-path="url(#84f25e3c67)"><rect x="-37.5" width="450" fill="#6073e4" y="-37.499999" height="449.999989" fill-opacity="1"/></g><g fill="#ffffff" fill-opacity="1"><g transform="translate(67.040626, 234.749985)"><g><path d="M 20.015625 0 L 20.015625 -16.984375 L 47.515625 -16.984375 C 50.878906 -16.984375 54.023438 -17.507812 56.953125 -18.5625 C 59.878906 -19.625 62.421875 -21.332031 64.578125 -23.6875 C 66.742188 -26.039062 68.425781 -29.160156 69.625 -33.046875 C 70.820312 -36.929688 71.421875 -41.660156 71.421875 -47.234375 C 71.421875 -52.609375 70.867188 -57.238281 69.765625 -61.125 C 68.660156 -65.007812 66.976562 -68.222656 64.71875 -70.765625 C 62.46875 -73.316406 59.640625 -75.164062 56.234375 -76.3125 C 52.828125 -77.46875 48.867188 -78.046875 44.359375 -78.046875 L 20.015625 -78.046875 L 20.015625 -95.046875 L 43.625 -95.046875 C 55.144531 -95.046875 64.550781 -93.171875 71.84375 -89.421875 C 79.144531 -85.679688 84.5 -80.328125 87.90625 -73.359375 C 91.320312 -66.398438 93.03125 -58.078125 93.03125 -48.390625 C 93.03125 -40.898438 92.140625 -34.414062 90.359375 -28.9375 C 88.585938 -23.46875 86.1875 -18.882812 83.15625 -15.1875 C 80.132812 -11.488281 76.703125 -8.507812 72.859375 -6.25 C 69.023438 -4 64.96875 -2.394531 60.6875 -1.4375 C 56.414062 -0.476562 52.21875 0 48.09375 0 Z M 10.21875 0 L 10.21875 -95.046875 L 30.953125 -95.046875 L 30.953125 0 Z M 10.21875 0 "/></g></g></g><g fill="#ffffff" fill-opacity="1"><g transform="translate(166.832573, 234.749985)"><g><path d="M 24.625 0 L 3.3125 -95.046875 L 25.78125 -95.046875 L 39.890625 -17.859375 L 41.328125 -17.859375 L 57.890625 -95.046875 L 84.09375 -95.046875 L 100.796875 -17.859375 L 102.234375 -17.859375 L 116.5 -95.046875 L 137.8125 -95.046875 L 116.203125 0 L 87.265625 0 L 71.28125 -76.890625 L 70.125 -76.890625 L 54.140625 0 Z M 24.625 0 "/></g></g></g></svg>