<svg transform="scale(1)" version="1.1" id="Layer_1" xmlns="http://www.w3.org/2000/svg" xmlns:xlink="http://www.w3.org/1999/xlink" x="0px" y="0px" viewBox="0 0 500 500" xml:space="preserve" class="show_show__wrapper__graphic__5Waiy "><title>React</title><style type="text/css">
	.st0{fill:#36382e;}
	.st1{fill:#ede6e3;}
	.st2{fill:#5bc3eb;}
	.st3{fill:#f06449;}
</style><g id="device"><path class="st0" d="M169.4,427.9c-8.6-0.2-15.5-7-15.7-15.6c-2.2-71.6-10.5-371.4,0.5-381.2c12.5-11.2,284.4-13,294.8-0.3
		s19.4,390.1,0,396.7C432.4,433.2,227.5,429.2,169.4,427.9z"></path><path class="st1" d="M179.7,414.9c-7.9-0.2-14.3-6.5-14.5-14.3c-2-65.8-9.7-341.5,0.4-350.6c11.5-10.3,262.8-11.9,272.4-0.3
		s17.9,358.8,0,364.9C422.6,419.8,233.4,416.1,179.7,414.9z"></path><path class="st2" d="M353.4,397.4c-1.5,0-3-0.2-4.4-0.7c-20.4-5.9-54-50-99.9-131c-34.2-60.3-62.8-119.8-63-120.3l0,0
		c-10.6-24.3-13.7-37.2-9.4-39.3c3.5-1.7,11.2,3.7,23.6,16.7c11.1,11.6,25.4,28.8,41.3,49.7c33.2,43.6,68.2,96.2,91.3,137.2
		c19.5,34.6,39.9,77.6,26.7,85.9C357.7,396.9,355.6,397.5,353.4,397.4z M186.9,145c1.3,2.8,114.4,237,162.4,250.8
		c3.8,1.1,7,0.8,9.8-1c9.8-6.1,0.1-36.2-27.1-84.6c-49.5-88-142.1-209.6-154.9-203.2C175,108,173.4,114.4,186.9,145z"></path><path class="st1" d="M337.6,211.2c-1.7,0-3.4-0.3-5-0.9c-7.3-2.6-14.4-10.8-21-24.3c-3-6.3-5.6-12.8-7.6-19.5
		c-4.2-8.9-5.4-14.6-3.5-17.8c1.7-3,5.7-3.4,9.6-3.8c5.1-0.5,10-0.9,9.7-7.3c-0.3-6.6-3.7-12-6-15.6c-1.6-2.5-2.5-3.9-1.8-4.8
		s3-0.8,14,2.8c13,4.2,28.7,24.3,32.6,50.5c2.5,17-1.5,30.6-11.1,37.2C344.6,210,341.2,211.1,337.6,211.2z M313.5,117.8
		c-0.3,0-0.5,0-0.6,0.2c-0.3,0.3,0.9,2.2,1.8,3.7c2.3,3.7,5.8,9.2,6.1,16c0.4,7.3-5.5,7.9-10.6,8.3c-3.8,0.4-7.4,0.7-8.8,3.3
		c-1.6,2.9-0.5,8.4,3.6,16.9v0.1c0.1,0.4,11.1,37.2,28,43.2c4.6,1.6,9.3,0.8,13.9-2.4c9.2-6.4,13.1-19.6,10.7-36.3
		c-3.4-23.2-17.4-45-31.9-49.7C322.3,119.9,315.6,117.8,313.5,117.8L313.5,117.8z"></path><path class="st2" d="M400.5,326.9c-2.1,0-4.1-0.5-5.9-1.5c-22.3-11-12.8-33.6-1.7-59.7c4-9.5,8.1-19.3,11-29.1
		c10.6-36.4-7.7-84-17.5-109.6c-4.9-12.8-6.9-18.1-5.2-19.2c0.9-0.6,2.5,0,7.3,4.7c0.3,0.3,24.3,23.9,36.5,73.8
		c5,20.3,6.2,50.3,3.2,78.5c-3.2,30.1-10.4,51.6-19.8,59.1C406.2,325.8,403.4,326.8,400.5,326.9z M381.9,108.6c0,0-0.1,0-0.1,0
		c-1.1,0.7,2.3,9.5,5.6,18c9.9,25.7,28.2,73.5,17.6,110.2c-2.9,9.9-7,19.7-11,29.3c-10.8,25.7-20.2,47.9,1.3,58.4
		c4.1,2.3,9.2,1.7,12.7-1.4c19.7-15.9,26.5-95,16.3-136.6c-12.2-49.6-36-73.1-36.2-73.3l0,0C383.6,109.1,382.2,108.6,381.9,108.6
		L381.9,108.6z"></path><path class="st2" d="M242.6,375.9c-3.5,0-9.1-4.1-16.8-12.2c-6.5-7-12.2-14.4-12.3-14.6c-13.5-17.5-19-32.4-14.8-39.9
		c1.7-3,4.9-4.5,9.1-4c11.5,1.4,27.2,16.7,34.9,43.5c4.7,16.2,5.2,25,1.5,26.9C243.7,375.8,243.1,375.9,242.6,375.9z M206.2,306.1
		c-2.7-0.2-5.3,1.2-6.7,3.6c-1.5,2.7-4.9,13.4,14.7,38.8l0,0c5.9,7.7,21.6,26.5,28.2,26.5c0.4,0,0.8-0.1,1.2-0.3
		c2.2-1.1,3.6-6.4-2-25.8c-7.6-26.3-22.9-41.4-34.1-42.7C207.2,306.2,206.7,306.1,206.2,306.1z"></path><path class="st2" d="M303.3,28.5c0,0-5.3-0.6-4.8,4.6s7.5,3.1,7.5,0S304.6,28.4,303.3,28.5z"></path><path class="st1" d="M319.8,30.4c0,0-2.6-0.3-2.4,2.3s3.8,1.6,3.8,0S320.5,30.4,319.8,30.4z"></path></g><g id="speech-bubble"><path class="st2" d="M229.2,235.7c0,0-6.2,38.6,0,37.5s43.7-37.5,43.7-37.5s113.9,16.3,121.6-3.6s12.9-98.1-13.7-110.9
		s-143.9-4.7-162.6,9S208.9,233.6,229.2,235.7z"></path><path class="st0" d="M263.9,177.2h-3c0,0-1.3-32.5,0.6-33.2s5,0,5,0l13.3,22.4c0,0-1-23.7,0-23.7h4c0,0,0,34.5-0.8,34.5h-3.6
		l-16.5-27.4L263.9,177.2z"></path><path class="st0" d="M289.1,177.2H306v-3.1l-12.1-0.9V160h6.1v-2.2c0,0-6.2-0.2-6.2-1.1s0.5-8.5,0.5-7.1h8.8v-5.9
		c1,0-13.9-2.4-14.5-1.1S289.1,177.2,289.1,177.2z"></path><path class="st0" d="M308.2,143.9c0.5,0.2,5.4,0,5.4,0l9.3,25.6c0,0,4.3-16.4,5.4-16.4h2.6l5.9,16.4c0,0,6.9-26.9,7.6-27.2
		s4.1,0,4.1,0s-10.1,35-11.6,35h-2.8l-6.2-16.7c0,0-4.2,17.2-5.3,16.6c-1.1-0.4-2.2-0.7-3.4-0.9L308.2,143.9z"></path><path class="st0" d="M261.1,212.7c0,0,4.3,0.7,4.3,0s1-24.3,0-24.6c-1.4-0.1-2.9-0.1-4.3,0V212.7z"></path><path class="st0" d="M264.9,202.6c0,0,9.6,1.5,10.3-5.3s-4.4-9.4-9.8-9.3l-0.5,2.7c0,0,6.2-0.3,6.1,4.1s-2.3,6-6.1,6.2L264.9,202.6
		z"></path><path class="st0" d="M319.7,194.3c0.6-0.6,1-1.4,1.1-2.3c0-1.1-3.8-4.8-7.7-2.7s-6.7,7.6,0,11.7s9.6,6.8,6.3,10.1s-8.5-3.4-8.5-3.4
		l-1.9,1.8c0,0,1.6,4.6,6.5,4.5s10.2-2.8,8.2-8.7s-10.9-5.6-10.7-10.9S319.7,194.3,319.7,194.3z"></path><path class="st0" d="M324.2,188.1c0,0-1.5,2.9,0,2.9h10.1c0,0-0.6,22.8,0,22.6s3.3-0.5,3.3-0.5v-22.1c0,0,11,0.1,11-0.6v-2.2H324.2
		z"></path><path class="st0" d="M301.9,191.6c-5.4-5.9-10.6-3.7-10.6-3.7s-11.4,2.1-10.4,13.8s11.4,13.7,17.4,10.2S307.2,197.5,301.9,191.6z
		 M294.5,211.2c-5.5,0.6-8.9-3.8-8.3-11.7s4.5-9,6.6-8.7c0,0,6.5-0.5,6.2,7.4S299.9,210.6,294.5,211.2z"></path><path class="st3" d="M219,121.1c-0.6-0.3-1.2-0.8-1.8-1.3c-0.5-0.5-0.9-1-1.3-1.6c-0.4-0.6-0.7-1.2-0.9-1.8
		c-0.3-0.7-0.4-1.4-0.4-2.1c0.6,0.3,1.2,0.7,1.7,1.3c0.5,0.5,0.9,1,1.3,1.6c0.4,0.6,0.7,1.2,0.9,1.8
		C218.8,119.7,219,120.4,219,121.1z"></path><path class="st3" d="M206.4,124.3c-1.6-0.6-3.2-1.4-4.8-2.2c-1.5-0.8-3-1.7-4.4-2.7c-1.4-1-2.8-2-4.2-3.1c-1.4-1.1-2.7-2.3-3.9-3.6
		c1.6,0.6,3.2,1.4,4.8,2.2c1.5,0.8,3,1.8,4.4,2.7s2.8,2,4.2,3.1C203.9,121.9,205.2,123.1,206.4,124.3z"></path><path class="st3" d="M189.1,130c1-0.4,2-0.7,3-0.8c1-0.1,2-0.2,3-0.2c1,0,2,0.1,3,0.2c1,0.1,2,0.4,3,0.8c-1,0.4-2,0.7-3,0.8
		c-2,0.3-4,0.3-5.9,0C191.1,130.6,190.1,130.4,189.1,130z"></path></g><g id="paper"><path class="st2" d="M188.5,264.1l-133.2-6c0,0-53.6,206.9,37.4,193.9l52.3-28.2l27.4-33.7C172.4,390.1,168.6,359.9,188.5,264.1z"></path><path class="st1" d="M137.2,381.9L137.2,381.9l-89.8-1.6c-0.3,0-0.5-0.2-0.5-0.5c0,0,0,0,0,0c0-0.3,0.2-0.5,0.5-0.5c0,0,0,0,0,0
		l89.8,1.6c0.3,0,0.5,0.2,0.5,0.5S137.5,381.9,137.2,381.9L137.2,381.9z"></path><path class="st1" d="M123.7,400L123.7,400l-76.3-1.9c-0.3,0-0.5-0.2-0.5-0.5s0.2-0.5,0.5-0.5l0,0l76.4,1.9c0.3,0,0.5,0.2,0.5,0.5
		c0,0,0,0,0,0C124.2,399.8,124,400,123.7,400C123.7,400,123.7,400,123.7,400z"></path><path class="st1" d="M115.9,415.4L115.9,415.4l-64.4-0.6c-0.3,0-0.5-0.2-0.5-0.5c0-0.3,0.2-0.5,0.5-0.5l0,0l64.4,0.6
		c0.3,0,0.5,0.2,0.5,0.5C116.4,415.1,116.2,415.3,115.9,415.4z"></path><path class="st1" d="M58.3,430.5c-0.3,0-0.5-0.2-0.5-0.5c0-0.3,0.2-0.5,0.5-0.5l45.7-0.1l0,0c0.3,0,0.5,0.2,0.5,0.5c0,0,0,0,0,0
		c0,0.3-0.2,0.5-0.5,0.5C104.1,430.4,58.3,430.5,58.3,430.5z"></path><path class="st1" d="M171.9,296.4L171.9,296.4l-116.6-2.9c-0.3,0-0.5-0.2-0.5-0.5c0,0,0,0,0,0c0-0.3,0.2-0.5,0.5-0.5l0,0l116.6,2.9
		c0.3,0,0.5,0.2,0.5,0.5S172.1,296.4,171.9,296.4L171.9,296.4z"></path><path class="st1" d="M169.3,311.1L169.3,311.1L51.6,310c-0.3,0-0.5-0.2-0.5-0.5s0.2-0.5,0.5-0.5l0,0l117.8,1.1
		c0.3,0,0.5,0.2,0.5,0.5c0,0,0,0,0,0C169.8,310.9,169.6,311.1,169.3,311.1z"></path><path class="st1" d="M49.5,325.8c-0.3,0-0.5-0.2-0.5-0.5c0-0.3,0.2-0.5,0.5-0.5l119.8-0.2l0,0c0.3,0,0.5,0.2,0.5,0.5c0,0,0,0,0,0
		c0,0.3-0.2,0.5-0.5,0.5C169.3,325.6,49.5,325.8,49.5,325.8z"></path><path class="st1" d="M164.1,341.1L164.1,341.1L49.5,341c-0.3,0-0.5-0.2-0.5-0.5c0-0.3,0.2-0.5,0.5-0.5l0,0h114.7
		c0.3,0,0.5,0.2,0.5,0.5C164.7,340.8,164.5,341,164.1,341.1C164.2,341.1,164.2,341.1,164.1,341.1z"></path><path class="st1" d="M154.6,357.1L154.6,357.1l-105.1-2.6c-0.3,0-0.5-0.2-0.5-0.5c0,0,0,0,0,0c0-0.3,0.2-0.5,0.5-0.5c0,0,0,0,0,0
		l105.1,2.6c0.3,0,0.5,0.2,0.5,0.5C155.1,356.9,154.9,357.1,154.6,357.1C154.7,357.1,154.6,357.1,154.6,357.1z"></path><path class="st1" d="M164.1,366.2H47.4c-0.3,0-0.5-0.2-0.5-0.5s0.2-0.5,0.5-0.5h116.8c0.3,0,0.5,0.2,0.5,0.5
		S164.4,366.2,164.1,366.2z"></path><path class="st1" d="M92.7,452h89c0,0-2.7-73.5-27.1-72.7S108.1,448.9,92.7,452z"></path><path class="st0" d="M184.5,477.1h139.3c0,0-11.1-88.4-27.3-95.1s-141.8-2.8-141.8-2.8S176.4,383.2,184.5,477.1z"></path><path class="st0" d="M121,326.1c-0.1,0-0.3,0-0.4,0c-0.7-0.2-1.2-0.9-1.2-1.6c0-0.8,0.7-1.7,2-2.7c-0.4-0.8-1-1.5-1.6-2
		c-1.4-1.2-3.9-1.5-7.3-1.1c-2.7,0.4-5.3,1-7.8,2c-0.8,2.3-4.5,4.3-6.1,4.7c-0.6,0.2-1.4,0-1.8-0.5c-0.3-0.6-0.2-1.4,0.2-1.9
		c0.8-1.1,2.9-2.5,5.5-3.6c-0.1-0.1-0.1-0.1-0.2-0.2c-2.7-1.7-13.4,2.7-19.4,5.9l-1-1.7c16-8.3,20.7-6.3,21.4-5.8
		c0.4,0.3,0.8,0.6,1.1,1.1c2.5-0.9,5.1-1.6,7.7-2c4-0.5,7,0,8.8,1.6c0.8,0.7,1.5,1.5,2,2.5c4.2-2.3,11.3-4.4,15.7-2.5L138,320
		c-3.2-1.4-8.4-0.1-12,1.5c-0.8,0.3-1.6,0.7-2.3,1.2c0,0.6-0.1,1.2-0.4,1.8C122.9,325.4,122,326,121,326.1z"></path><path class="st0" d="M135.3,311.7c-0.1,0-0.3,0-0.4-0.1c-0.4-0.2-0.7-0.6-0.7-1c0.3-1.1,0.9-2.1,1.6-3c-0.2-1.5-0.7-3-1.5-4.4
		c-0.6-1.1-1.8-1.6-2.9-1.5c-3.2,0.1-7.6,2.8-10.3,5c-0.1,0.8-0.4,1.6-0.8,2.2c-0.9,1.2-2.3,1.7-3.2,1.2c-0.4-0.3-0.6-0.8-0.5-1.2
		c0.1-0.7,1.1-1.8,2.6-3.1c-0.3-1.4-1.1-2.6-2.2-3.5c-1.5-1.4-4.5-1.4-8.3,0.2c-1.9,0.8-3.7,1.8-5.4,3c-0.2,2.1-1.2,4.1-2.4,4.7
		c-0.7,0.3-1.6,0.1-2.1-0.5c-0.6-0.7-0.8-2,1.5-4.2c0.3-0.3,0.7-0.6,1.1-0.9c0,0,0-0.1,0-0.1c-0.1-1.7-1.5-3-3.2-3.1
		c-6.4-1.1-15.9,8.4-16,8.5l-1.4-1.4c0.4-0.4,10.3-10.3,17.7-9.1c2.2,0.2,4.1,1.8,4.6,4c4.6-3.1,11.6-5.6,15.2-2.3
		c1.1,1,2,2.2,2.6,3.6c2.8-2.1,6.5-4.1,9.6-4.6c3.4-0.5,5,1,5.8,2.4c0.6,1,1,2.1,1.4,3.2c1.9-2.2,4.4-4.5,6.8-5.3
		c2.6-1,5.6-0.2,7.2,2.1l-1.5,1.3c-0.9-1.3-2.4-2-4-1.8c-3,0.5-6.2,3.9-8.1,6.5c0,0.9-0.4,1.8-0.9,2.6
		C136.4,311.5,135.9,311.7,135.3,311.7z"></path></g><g id="pencil"><polygon class="st1" points="160.4,354 143,327.1 174.1,330 	"></polygon><path class="st3" d="M160.4,354l111.5,78.8c0,0,1.7-49.2,32.8-52.6L174.1,330C174.1,330,156.2,333.4,160.4,354z"></path><path class="st2" d="M308.1,459.5l-36.2-26.6c0,0-7.9-49.7,32.8-52.6l42.4,16.4L308.1,459.5z"></path><path class="st0" d="M161.2,340.6c9.7,4.6,19.4,9.4,28.9,14.2c9.6,4.8,19.1,9.8,28.7,14.7s19,10,28.5,15.1s18.9,10.3,28.2,15.6
		c-9.7-4.6-19.4-9.4-28.9-14.2c-9.6-4.8-19.1-9.8-28.7-14.7s-19-10-28.5-15.1S170.5,345.9,161.2,340.6z"></path><path class="st0" d="M283.6,441.5c-0.5-9,0.6-18.1,3-26.8c0.9-2.9,1.9-5.8,3.1-8.5c2.4-5.6,6.1-10.6,10.7-14.6
		c2.4-1.9,5-3.5,7.8-4.6c2.8-1,5.8-1.7,8.8-1.9c-2.9,0.6-5.7,1.5-8.4,2.8c-2.6,1.3-5,3-7.2,4.9c-2.2,2-4.1,4.2-5.7,6.6
		c-1.7,2.4-3.1,5-4.3,7.6c-2.4,5.4-4.2,11-5.4,16.8c-0.6,2.9-1.1,5.8-1.6,8.8C284.1,435.5,283.9,438.5,283.6,441.5z"></path><path class="st0" d="M308.1,459.5c0,0-11.4-27.9,6.8-46.1s28-15.9,32.2-16.6s34.8,6,28.9,36.2S336.2,490.8,308.1,459.5z"></path><path class="st0" d="M148.2,335.2c0,0-1.3-6.4,4.1-7.2c0,0-12-3.3-12-2.3S148.2,335.2,148.2,335.2z"></path></g></svg>